<?xml version="1.0" encoding="utf-8"?>
<!-- Generator: Adobe Illustrator 26.3.0, SVG Export Plug-In . SVG Version: 6.00 Build 0)  -->
<svg version="1.1" id="Capa_1" xmlns="http://www.w3.org/2000/svg" xmlns:xlink="http://www.w3.org/1999/xlink" x="0px" y="0px"
	 viewBox="0 0 50 50" style="enable-background:new 0 0 50 50;" xml:space="preserve">
<style type="text/css">
	.st0{fill:#E52833;}
	.st1{fill:#0F2943;}
</style>
<g>
	<path class="st0" d="M43.19,26.76c-0.6,0.13-1.22,0.15-1.83,0.22c-1.43,0.17-2.87,0.32-4.3,0.47c-1.48,0.16-2.96,0.32-4.43,0.48
		c-1.42,0.15-2.84,0.31-4.26,0.47c-1.22,0.13-2.44,0.26-3.67,0.39c-0.78,0.08-1.56,0.17-2.34,0.25c-0.43,0.04-0.43,0.04-0.58-0.35
		c-0.69-1.83-1.39-3.66-2.08-5.49c-0.88-2.36-1.78-4.71-2.63-7.07c-0.36-1.01-0.72-2.02-1.11-3.02c-0.03-0.09-0.09-0.18-0.06-0.31
		c0.13-0.07,0.29-0.04,0.44-0.04c4.81,0,9.61,0,14.42,0c5.48,0,10.96,0,16.43-0.01c0.27,0,0.55-0.02,0.81,0.02
		c1.05,0.15,1.73,1.1,1.49,2.16c-0.16,0.71-0.36,1.41-0.55,2.11c-0.37,1.34-0.74,2.67-1.11,4.01c-0.87,0-1.74,0.01-2.61,0.01
		c-0.46,0-0.41-0.04-0.54,0.42C44.18,23.24,43.69,25,43.19,26.76z M22.36,17.55C22.36,17.55,22.36,17.55,22.36,17.55
		c-0.23,0-0.46-0.01-0.69,0.01c-0.41,0.03-0.65,0.33-0.59,0.73c0.02,0.15,0.07,0.3,0.12,0.45c0.8,2.46,1.61,4.91,2.41,7.37
		c0.05,0.15,0.1,0.3,0.18,0.43c0.16,0.29,0.42,0.43,0.75,0.41c0.38-0.02,0.77-0.07,1.15-0.14c0.41-0.07,0.64-0.4,0.57-0.81
		c-0.04-0.22-0.1-0.44-0.18-0.66c-0.45-1.38-0.91-2.77-1.37-4.15c-0.33-0.99-0.65-1.98-0.98-2.97c-0.17-0.52-0.37-0.67-0.9-0.67
		C22.67,17.55,22.51,17.55,22.36,17.55z M33.53,21.8C33.53,21.8,33.53,21.8,33.53,21.8c-0.01-0.27-0.01-0.54-0.01-0.81
		c0-0.87,0.01-1.74,0-2.62c-0.01-0.55-0.28-0.81-0.83-0.82c-0.33-0.01-0.66-0.01-0.99,0c-0.41,0.02-0.66,0.25-0.74,0.65
		c-0.02,0.12-0.02,0.26-0.02,0.38c0,2.14,0,4.29,0,6.43c0,0.14,0,0.29,0.03,0.43c0.09,0.41,0.4,0.68,0.83,0.67
		c0.38-0.01,0.77-0.06,1.15-0.13c0.35-0.07,0.53-0.3,0.57-0.66c0.02-0.16,0.01-0.31,0.01-0.47C33.54,23.83,33.53,22.82,33.53,21.8z
		 M41.84,17.55C41.84,17.55,41.84,17.55,41.84,17.55c-0.21,0-0.43,0-0.64,0c-0.3,0.01-0.52,0.15-0.65,0.41
		c-0.07,0.13-0.11,0.26-0.16,0.4c-0.49,1.37-0.97,2.74-1.46,4.12c-0.21,0.61-0.43,1.21-0.64,1.82c-0.22,0.63,0.25,1.14,0.81,1.07
		c0.31-0.04,0.62-0.08,0.94-0.09c0.48-0.01,0.75-0.24,0.91-0.69c0.67-1.94,1.37-3.88,2.05-5.81c0.04-0.11,0.08-0.22,0.1-0.33
		c0.1-0.51-0.18-0.87-0.7-0.9C42.22,17.54,42.03,17.55,41.84,17.55z"/>
	<path class="st1" d="M45.96,28.25c-0.15,0.63-0.3,1.29-0.54,1.92c-0.28,0.75-0.84,1.17-1.64,1.26c-0.88,0.09-1.76,0.19-2.64,0.28
		c-1.81,0.19-3.61,0.39-5.42,0.58c-1.72,0.18-3.44,0.36-5.16,0.55c-1.41,0.15-2.81,0.32-4.22,0.47c-1.19,0.13-2.39,0.25-3.58,0.38
		c-0.4,0.04-0.79,0.1-1.19,0.14c-0.17,0.02-0.26,0.06-0.25,0.25c0.01,0.49,0.01,0.97,0,1.46c-0.01,0.2,0.09,0.24,0.26,0.23
		c0.21-0.01,0.43,0,0.64,0c7.02-0.01,14.05-0.01,21.07-0.02c0.19,0,0.37,0,0.56,0.03c0.74,0.13,1.24,0.74,1.24,1.48
		c0,0.72-0.52,1.33-1.27,1.45c-0.15,0.02-0.31,0.02-0.47,0.02c-7.5,0-14.99,0-22.49,0.01c-0.43,0-0.85-0.04-1.25-0.24
		c-0.82-0.4-1.26-1.06-1.28-1.97c-0.02-1.13-0.02-2.26-0.01-3.39c0-0.28-0.05-0.53-0.14-0.79c-1.09-2.87-2.17-5.75-3.25-8.62
		c-1.52-4.04-3.03-8.08-4.53-12.12c-0.09-0.25-0.23-0.35-0.47-0.41c-2.46-0.57-4.92-1.15-7.39-1.72c-0.64-0.15-1.08-0.5-1.23-1.16
		C1.05,7.29,1.87,6.37,2.92,6.55c0.69,0.11,1.37,0.3,2.05,0.46c2.16,0.5,4.31,1.02,6.47,1.51c0.75,0.17,1.21,0.58,1.46,1.28
		c1.06,2.88,2.13,5.76,3.21,8.64c1.51,4.04,2.99,8.09,4.55,12.12c0.13,0.34,0.13,0.35,0.48,0.31c1.79-0.19,3.58-0.39,5.37-0.58
		c1.45-0.16,2.9-0.31,4.35-0.46c1.73-0.19,3.47-0.38,5.2-0.56c1.18-0.13,2.36-0.25,3.54-0.38c1.44-0.16,2.87-0.32,4.31-0.48
		c0.63-0.07,1.25-0.14,1.88-0.2C45.84,28.19,45.9,28.19,45.96,28.25z"/>
	<path class="st1" d="M37.2,42.52c0-1.56,1.24-2.82,2.79-2.82c1.59,0,2.87,1.27,2.87,2.85c0,1.57-1.27,2.82-2.85,2.82
		C38.43,45.36,37.19,44.11,37.2,42.52z M40,43.74c0.69,0.01,1.23-0.53,1.23-1.21c0-0.66-0.54-1.2-1.19-1.21
		c-0.68-0.01-1.2,0.5-1.21,1.17C38.81,43.22,39.3,43.74,40,43.74z"/>
	<path class="st1" d="M23.87,45.37c-1.55,0-2.78-1.25-2.78-2.83c0-1.58,1.26-2.85,2.83-2.85c1.56,0,2.81,1.27,2.82,2.86
		C26.74,44.11,25.45,45.37,23.87,45.37z M23.92,43.75c0.67,0,1.19-0.53,1.18-1.2c-0.01-0.67-0.54-1.22-1.18-1.21
		c-0.67,0-1.2,0.53-1.21,1.19C22.7,43.21,23.23,43.75,23.92,43.75z"/>
	<path class="st1" d="M43.19,26.76c0.49-1.76,0.99-3.51,1.48-5.27c0.13-0.45,0.08-0.41,0.54-0.42c0.87-0.01,1.74-0.01,2.61-0.01
		c0.02,0.32-0.11,0.61-0.19,0.91c-0.36,1.38-0.73,2.75-1.1,4.12c-0.09,0.35-0.1,0.34-0.45,0.38c-0.89,0.09-1.78,0.19-2.68,0.29
		C43.33,26.76,43.26,26.76,43.19,26.76z"/>
	<path class="st0" d="M40,43.74c-0.7-0.01-1.19-0.52-1.18-1.24c0.01-0.67,0.53-1.18,1.21-1.17c0.65,0.01,1.19,0.55,1.19,1.21
		C41.23,43.22,40.69,43.75,40,43.74z"/>
	<path class="st0" d="M23.92,43.75c-0.69,0-1.22-0.53-1.21-1.22c0.01-0.67,0.54-1.19,1.21-1.19c0.64,0,1.18,0.54,1.18,1.21
		C25.11,43.22,24.59,43.74,23.92,43.75z"/>
</g>
</svg>
